<?xml version="1.0" encoding="UTF-8"?><svg id="Layer_1" xmlns="http://www.w3.org/2000/svg" viewBox="0 0 32 32"><defs><style>.cls-1{fill:#fff;}.cls-2{fill:#231f20;}</style></defs><path class="cls-1" d="M23.17,14.82c-1.02-1.43-2.55-1.65-3.34-1.66-.07-.16-.15-.31-.25-.46-.98-1.53-2.59-1.64-3.43-1.57-.06-.14-.12-.27-.2-.4-.82-1.38-2.31-1.65-3.18-1.68V2.78c0-1.53-1.25-2.78-2.78-2.78s-2.78,1.25-2.78,2.78v14.82l-2.74-1.91c-.79-.55-1.78-.66-2.64-.29h-.03c-.67.3-1.16.74-1.47,1.32-.17.31-.27.65-.31,1.01-.07.67.1,1.37.5,1.97l6.21,9.31c.57.83,1.32,1.54,2.19,2.05.06.03.11.07.17.1.99.55,2.13.84,3.32.84h4.97c1.26,0,2.46-.36,3.45-1.05.06-.04.11-.08.17-.12,1.06-.79,1.57-1.7,1.82-2.14.03-.06.06-.11.09-.17.55-1.04.83-2.16.83-3.25v-8.46c0-.78-.2-1.47-.57-2Z"/><path class="cls-2" d="M23.17,14.82c-1.02-1.43-2.55-1.65-3.34-1.66-.07-.16-.15-.31-.25-.46-.98-1.53-2.59-1.64-3.43-1.57-.06-.14-.12-.27-.2-.4-.82-1.38-2.31-1.65-3.18-1.68V2.78c0-1.53-1.25-2.78-2.78-2.78s-2.78,1.25-2.78,2.78v14.82l-2.74-1.91c-.79-.55-1.78-.66-2.64-.29h-.03c-.67.3-1.16.74-1.47,1.32-.17.31-.27.65-.31,1.01-.07.67.1,1.37.5,1.97l6.21,9.31c.57.83,1.32,1.54,2.19,2.05.06.03.11.07.17.1.99.55,2.13.84,3.32.84h4.97c1.26,0,2.46-.36,3.45-1.05.06-.04.11-.08.17-.12,1.06-.79,1.57-1.7,1.82-2.14.03-.06.06-.11.09-.17.55-1.04.83-2.16.83-3.25v-8.46c0-.78-.2-1.47-.57-2ZM22.53,25.28c0,.89-.24,1.82-.7,2.69-.03.05-.05.1-.08.14-.22.39-.63,1.12-1.49,1.76-.04.03-.09.06-.13.1-.79.54-1.75.83-2.76.83h-4.97c-.98,0-1.93-.24-2.73-.69-.05-.03-.09-.05-.14-.08-.71-.42-1.34-1.01-1.8-1.69L1.52,19.03c-.24-.36-.35-.77-.3-1.17.02-.2.08-.4.18-.57.27-.51.74-.71.89-.78h.02c.48-.21,1.04-.14,1.49.16l3.69,2.56c.18.13.42.14.62.04.2-.1.32-.31.32-.53V2.78c0-.87.71-1.58,1.58-1.58s1.58.71,1.58,1.58v12.69c0,.33.27.6.6.6s.6-.27.6-.6v-5.2c.62.03,1.63.22,2.15,1.09.19.32.3.72.3,1.15v3.28c0,.33.27.6.6.6s.6-.27.6-.6v-3.28c0-.06,0-.12,0-.18.6-.02,1.57.11,2.16,1.03.24.38.37.83.37,1.32v1.71c0,.33.27.6.6.6s.6-.27.6-.6v-1.71c0-.1,0-.2-.01-.3.59.06,1.46.3,2.05,1.14.29.41.35.93.35,1.3v8.46Z"/></svg>